# xmcd
#
# Track frame offsets:
# 150
# 15640
# 28959
# 44761
# 60181
# 75607
# 87794
# 100577
# 113572
# 126042
# 138752
# 152968
# 168018
# 183783
# 197753
# 211886
# 225926
#
# Disc length: 3192 seconds
#
#
# Revision: 0
# Processed by: cddbd v1.5.1PL2 Copyright (c) Steve Scherf et al.
# Submitted via: FreeRIP 2.943 
#
DISCID=c70c7611
DTITLE=As Boas do Forró Vol.01 - 2006
DYEAR=1900
DGENRE=Country
TTITLE0=Risca Faca - Aviões do Forró
TTITLE1=Baixinho Careca - Banda Teck Genericos
TTITLE2=Lapada na Baxada - Jatinho do Forró
TTITLE3=Eu Ja Fui de Você - Gino and Geno
TTITLE4=To Mal - Banda Teck Genericos
TTITLE5=Bobo - Bonde Sertanejo
TTITLE6=É Bom Demais - Os Feras do Baile
TTITLE7=Como Um Anjo - Os Clones do Forró
TTITLE8=Na Hora H - Bonde do Forró
TTITLE9=Encaixa - Washington Brasileiro
TTITLE10=Minha Estrela Perdida - Bonde Sertanejo
TTITLE11=Loura Gelada, Morena Quente - Gian and Giovani
TTITLE12=Rapadura Nela - Andre e Andrade
TTITLE13=Cara de Paú - Os Clones do Forró
TTITLE14=Por Te Amar Demais - Bonde Sertanejo
TTITLE15=Estando Com Ela Pensando Em Ti - Aviões Forró
TTITLE16=Cuida do Nosso Amor - Bonde do Forró
EXTD=
EXTT0=
EXTT1=
EXTT2=
EXTT3=
EXTT4=
EXTT5=
EXTT6=
EXTT7=
EXTT8=
EXTT9=
EXTT10=
EXTT11=
EXTT12=
EXTT13=
EXTT14=
EXTT15=
EXTT16=
PLAYORDER=
